# xmcd
#
# Track frame offsets:
#	182
#	19270
#	41485
#	56617
#	76327
#	96355
#	128447
#	149312
#	170145
#	198842
#	221787
#	241980
#	266625
#	291272
#	312605
#	330535
#
# Disc length: 4718 seconds
#
# Revision: 1
# Processed by: cddbd v1.4PL0 Copyright (c) Steve Scherf et al.
# Submitted via: audiograbber 1.80.04
#
DISCID=f0126c10
DTITLE=Melissa Etheridge - Acoustic
DYEAR=1994
DGENRE=Rock
TTITLE0=Come To My Window
TTITLE1=Ain't It Heavy
TTITLE2=If I Wanted To
TTITLE3=Bring Me Some Water
TTITLE4=Maggie Mae
TTITLE5=Yes I Am
TTITLE6=Thunder Road
TTITLE7=I'm The Only One
TTITLE8=Like The Way I Do
TTITLE9=No Souvenirs
TTITLE10=Similar Features
TTITLE11=Dance Without Sleeping
TTITLE12=The Weakness In Me
TTITLE13=Me And Bobby McGee
TTITLE14=You Can Sleep While I Drive
TTITLE15=Let's Get It On
EXTD=
EXTT0=
EXTT1=
EXTT2=
EXTT3=
EXTT4=
EXTT5=
EXTT6=
EXTT7=
EXTT8=
EXTT9=
EXTT10=
EXTT11=
EXTT12=
EXTT13=
EXTT14=
EXTT15=
PLAYORDER=
